<mxfile host="app.diagrams.net" agent="Mozilla/5.0 (Macintosh; Intel Mac OS X 10_15_7) AppleWebKit/605.1.15 (KHTML, like Gecko) Version/18.0.1 Safari/605.1.15" version="27.1.3">
  <diagram name="Page-1" id="PdrVi33ObP7XUxvR3Bw6">
    <mxGraphModel dx="1868" dy="1797" grid="1" gridSize="10" guides="1" tooltips="1" connect="1" arrows="1" fold="1" page="1" pageScale="1" pageWidth="850" pageHeight="1100" math="0" shadow="0">
      <root>
        <mxCell id="0" />
        <mxCell id="1" parent="0" />
        <mxCell id="YbzBT8yJifRhzERJrink-1" value="S&lt;sub&gt;0&lt;/sub&gt;" style="ellipse;whiteSpace=wrap;html=1;aspect=fixed;" vertex="1" parent="1">
          <mxGeometry x="130" y="140" width="80" height="80" as="geometry" />
        </mxCell>
        <mxCell id="YbzBT8yJifRhzERJrink-2" value="S&lt;font size=&quot;1&quot;&gt;&lt;sub&gt;1&lt;/sub&gt;&lt;/font&gt;" style="ellipse;whiteSpace=wrap;html=1;aspect=fixed;" vertex="1" parent="1">
          <mxGeometry x="530" y="30" width="80" height="80" as="geometry" />
        </mxCell>
        <mxCell id="YbzBT8yJifRhzERJrink-3" value="S&lt;sub&gt;2&lt;/sub&gt;" style="ellipse;whiteSpace=wrap;html=1;aspect=fixed;" vertex="1" parent="1">
          <mxGeometry x="560" y="370" width="80" height="80" as="geometry" />
        </mxCell>
        <mxCell id="YbzBT8yJifRhzERJrink-4" value="Stock: 1&lt;div&gt;Asset: 100&lt;/div&gt;" style="text;html=1;align=left;verticalAlign=middle;whiteSpace=wrap;rounded=0;fontFamily=Helvetica;fontSize=12;fontStyle=1" vertex="1" parent="1">
          <mxGeometry x="60" y="110" width="100" height="30" as="geometry" />
        </mxCell>
        <mxCell id="YbzBT8yJifRhzERJrink-7" value="" style="curved=1;endArrow=classic;html=1;rounded=0;" edge="1" parent="1">
          <mxGeometry width="50" height="50" relative="1" as="geometry">
            <mxPoint x="210" y="180" as="sourcePoint" />
            <mxPoint x="340" y="170" as="targetPoint" />
            <Array as="points">
              <mxPoint x="220" y="140" />
              <mxPoint x="270" y="130" />
            </Array>
          </mxGeometry>
        </mxCell>
        <mxCell id="YbzBT8yJifRhzERJrink-8" value="&lt;span style=&quot;font-size: 12px;&quot;&gt;a&lt;/span&gt;&lt;sub&gt;0&lt;/sub&gt;" style="ellipse;whiteSpace=wrap;html=1;aspect=fixed;" vertex="1" parent="1">
          <mxGeometry x="340" y="155" width="50" height="50" as="geometry" />
        </mxCell>
        <mxCell id="YbzBT8yJifRhzERJrink-9" value="&lt;span style=&quot;font-size: 12px;&quot;&gt;a&lt;/span&gt;&lt;font size=&quot;1&quot;&gt;&lt;sub&gt;1&lt;/sub&gt;&lt;/font&gt;" style="ellipse;whiteSpace=wrap;html=1;aspect=fixed;" vertex="1" parent="1">
          <mxGeometry x="270" y="270" width="50" height="50" as="geometry" />
        </mxCell>
        <mxCell id="YbzBT8yJifRhzERJrink-10" value="" style="curved=1;endArrow=classic;html=1;rounded=0;entryX=0;entryY=0.5;entryDx=0;entryDy=0;" edge="1" parent="1" target="YbzBT8yJifRhzERJrink-9">
          <mxGeometry width="50" height="50" relative="1" as="geometry">
            <mxPoint x="210" y="180" as="sourcePoint" />
            <mxPoint x="340" y="170" as="targetPoint" />
            <Array as="points">
              <mxPoint x="210" y="290" />
            </Array>
          </mxGeometry>
        </mxCell>
        <mxCell id="YbzBT8yJifRhzERJrink-11" value="Buy NVDA" style="text;html=1;align=left;verticalAlign=middle;whiteSpace=wrap;rounded=0;fontFamily=Helvetica;fontSize=12;fontStyle=1" vertex="1" parent="1">
          <mxGeometry x="270" y="110" width="90" height="30" as="geometry" />
        </mxCell>
        <mxCell id="YbzBT8yJifRhzERJrink-12" value="Sell NVDA" style="text;html=1;align=left;verticalAlign=middle;whiteSpace=wrap;rounded=0;fontFamily=Helvetica;fontSize=12;fontStyle=1" vertex="1" parent="1">
          <mxGeometry x="160" y="290" width="100" height="30" as="geometry" />
        </mxCell>
        <mxCell id="YbzBT8yJifRhzERJrink-14" value="Stock: 0&lt;div&gt;Asset: 130&lt;/div&gt;" style="text;html=1;align=left;verticalAlign=middle;whiteSpace=wrap;rounded=0;fontFamily=Helvetica;fontSize=12;fontStyle=1" vertex="1" parent="1">
          <mxGeometry x="480" y="370" width="100" height="30" as="geometry" />
        </mxCell>
        <mxCell id="YbzBT8yJifRhzERJrink-15" value="Stock: 2&lt;div&gt;Asset: 40&lt;/div&gt;" style="text;html=1;align=left;verticalAlign=middle;whiteSpace=wrap;rounded=0;fontFamily=Helvetica;fontSize=12;fontStyle=1" vertex="1" parent="1">
          <mxGeometry x="530" y="-10" width="80" height="30" as="geometry" />
        </mxCell>
        <mxCell id="YbzBT8yJifRhzERJrink-16" value="" style="curved=1;endArrow=classic;html=1;rounded=0;entryX=0;entryY=0.375;entryDx=0;entryDy=0;entryPerimeter=0;exitX=0.5;exitY=0;exitDx=0;exitDy=0;" edge="1" parent="1" source="YbzBT8yJifRhzERJrink-8" target="YbzBT8yJifRhzERJrink-2">
          <mxGeometry width="50" height="50" relative="1" as="geometry">
            <mxPoint x="360" y="150" as="sourcePoint" />
            <mxPoint x="510" y="90" as="targetPoint" />
            <Array as="points">
              <mxPoint x="420" y="50" />
            </Array>
          </mxGeometry>
        </mxCell>
        <mxCell id="YbzBT8yJifRhzERJrink-19" value="" style="curved=1;endArrow=classic;html=1;rounded=0;entryX=0;entryY=0.5;entryDx=0;entryDy=0;" edge="1" parent="1" target="YbzBT8yJifRhzERJrink-3">
          <mxGeometry width="50" height="50" relative="1" as="geometry">
            <mxPoint x="295" y="320" as="sourcePoint" />
            <mxPoint x="330" y="445" as="targetPoint" />
            <Array as="points">
              <mxPoint x="270" y="440" />
            </Array>
          </mxGeometry>
        </mxCell>
        <mxCell id="YbzBT8yJifRhzERJrink-20" value="" style="curved=1;endArrow=classic;html=1;rounded=0;exitX=1;exitY=0;exitDx=0;exitDy=0;" edge="1" parent="1" source="YbzBT8yJifRhzERJrink-3">
          <mxGeometry width="50" height="50" relative="1" as="geometry">
            <mxPoint x="635" y="320" as="sourcePoint" />
            <mxPoint x="670" y="250" as="targetPoint" />
            <Array as="points">
              <mxPoint x="710" y="330" />
            </Array>
          </mxGeometry>
        </mxCell>
        <mxCell id="YbzBT8yJifRhzERJrink-21" value="&lt;span style=&quot;font-size: 12px;&quot;&gt;a&lt;/span&gt;&lt;sub&gt;0&lt;/sub&gt;" style="ellipse;whiteSpace=wrap;html=1;aspect=fixed;" vertex="1" parent="1">
          <mxGeometry x="630" y="205" width="50" height="50" as="geometry" />
        </mxCell>
        <mxCell id="YbzBT8yJifRhzERJrink-22" value="Buy NVDA" style="text;html=1;align=left;verticalAlign=middle;whiteSpace=wrap;rounded=0;fontFamily=Helvetica;fontSize=12;fontStyle=1" vertex="1" parent="1">
          <mxGeometry x="700" y="310" width="70" height="30" as="geometry" />
        </mxCell>
        <mxCell id="YbzBT8yJifRhzERJrink-24" value="Stock: 1&lt;div&gt;Asset: 110&lt;/div&gt;" style="text;html=1;align=left;verticalAlign=middle;whiteSpace=wrap;rounded=0;fontFamily=Helvetica;fontSize=12;fontStyle=1" vertex="1" parent="1">
          <mxGeometry x="615" y="70" width="80" height="30" as="geometry" />
        </mxCell>
        <mxCell id="YbzBT8yJifRhzERJrink-25" value="" style="curved=1;endArrow=classic;html=1;rounded=0;entryX=0.65;entryY=1.013;entryDx=0;entryDy=0;entryPerimeter=0;exitX=0.5;exitY=0;exitDx=0;exitDy=0;" edge="1" parent="1" source="YbzBT8yJifRhzERJrink-21" target="YbzBT8yJifRhzERJrink-2">
          <mxGeometry width="50" height="50" relative="1" as="geometry">
            <mxPoint x="590" y="235" as="sourcePoint" />
            <mxPoint x="765" y="110" as="targetPoint" />
            <Array as="points">
              <mxPoint x="645" y="130" />
            </Array>
          </mxGeometry>
        </mxCell>
        <mxCell id="YbzBT8yJifRhzERJrink-26" value="&lt;span style=&quot;font-size: 12px;&quot;&gt;a&lt;/span&gt;&lt;font size=&quot;1&quot;&gt;&lt;sub&gt;2&lt;/sub&gt;&lt;/font&gt;" style="ellipse;whiteSpace=wrap;html=1;aspect=fixed;" vertex="1" parent="1">
          <mxGeometry x="30" y="230" width="50" height="50" as="geometry" />
        </mxCell>
        <mxCell id="YbzBT8yJifRhzERJrink-27" value="" style="curved=1;endArrow=classic;html=1;rounded=0;entryX=1;entryY=1;entryDx=0;entryDy=0;" edge="1" parent="1" target="YbzBT8yJifRhzERJrink-26">
          <mxGeometry width="50" height="50" relative="1" as="geometry">
            <mxPoint x="130" y="185" as="sourcePoint" />
            <mxPoint x="190" y="300" as="targetPoint" />
            <Array as="points">
              <mxPoint x="130" y="295" />
            </Array>
          </mxGeometry>
        </mxCell>
        <mxCell id="YbzBT8yJifRhzERJrink-28" value="Hold" style="text;html=1;align=left;verticalAlign=middle;whiteSpace=wrap;rounded=0;fontFamily=Helvetica;fontSize=12;fontStyle=1" vertex="1" parent="1">
          <mxGeometry x="-10" y="220" width="120" height="30" as="geometry" />
        </mxCell>
        <mxCell id="YbzBT8yJifRhzERJrink-31" value="" style="curved=1;endArrow=classic;html=1;rounded=0;" edge="1" parent="1">
          <mxGeometry width="50" height="50" relative="1" as="geometry">
            <mxPoint x="60" y="230" as="sourcePoint" />
            <mxPoint x="130" y="190" as="targetPoint" />
            <Array as="points">
              <mxPoint x="70" y="190" />
              <mxPoint x="120" y="180" />
            </Array>
          </mxGeometry>
        </mxCell>
        <mxCell id="YbzBT8yJifRhzERJrink-34" value="&lt;span style=&quot;font-size: 12px;&quot;&gt;a&lt;/span&gt;&lt;font size=&quot;1&quot;&gt;&lt;sub&gt;1&lt;/sub&gt;&lt;/font&gt;" style="ellipse;whiteSpace=wrap;html=1;aspect=fixed;" vertex="1" parent="1">
          <mxGeometry x="490" y="220" width="50" height="50" as="geometry" />
        </mxCell>
        <mxCell id="YbzBT8yJifRhzERJrink-37" value="" style="curved=1;endArrow=classic;html=1;rounded=0;entryX=0.5;entryY=0;entryDx=0;entryDy=0;exitX=0.25;exitY=0.975;exitDx=0;exitDy=0;exitPerimeter=0;" edge="1" parent="1" source="YbzBT8yJifRhzERJrink-2" target="YbzBT8yJifRhzERJrink-34">
          <mxGeometry width="50" height="50" relative="1" as="geometry">
            <mxPoint x="460" y="170" as="sourcePoint" />
            <mxPoint x="590" y="160" as="targetPoint" />
            <Array as="points">
              <mxPoint x="520" y="130" />
            </Array>
          </mxGeometry>
        </mxCell>
        <mxCell id="YbzBT8yJifRhzERJrink-39" value="Sell NVDA" style="text;html=1;align=left;verticalAlign=middle;whiteSpace=wrap;rounded=0;fontFamily=Helvetica;fontSize=12;fontStyle=1" vertex="1" parent="1">
          <mxGeometry x="400" y="205" width="100" height="30" as="geometry" />
        </mxCell>
        <mxCell id="YbzBT8yJifRhzERJrink-46" value="" style="curved=1;endArrow=classic;html=1;rounded=0;exitX=0;exitY=0.5;exitDx=0;exitDy=0;" edge="1" parent="1" source="YbzBT8yJifRhzERJrink-34">
          <mxGeometry width="50" height="50" relative="1" as="geometry">
            <mxPoint x="250" y="250" as="sourcePoint" />
            <mxPoint x="210" y="190" as="targetPoint" />
            <Array as="points">
              <mxPoint x="300" y="250" />
              <mxPoint x="250" y="200" />
            </Array>
          </mxGeometry>
        </mxCell>
      </root>
    </mxGraphModel>
  </diagram>
</mxfile>
